<svg width="120" height="40" viewBox="0 0 120 40" fill="none" xmlns="http://www.w3.org/2000/svg">
<rect width="120" height="40" fill="white"/>
<path d="M18.6813 13.2397H24.9451V34.1738H18.6813V32.1958C17.3626 33.8441 15.3846 34.8332 12.7473 34.8332C10.6044 34.8332 8.62637 34.009 7.14286 32.5255C5.65934 31.0419 5 28.8991 5 26.0969V13.2397H11.2637V25.1079C11.2637 27.5804 12.7473 28.8991 14.8901 28.8991C17.1978 28.8991 18.8462 27.4156 18.8462 24.6134V13.2397H18.6813Z" fill="#624CE0"/>
<path d="M41.5935 13.2397H48.5165L40.7693 34.1738H33.6814L25.7693 13.2397H32.6924L36.9781 26.5914L41.5935 13.2397Z" fill="#624CE0"/>
<path d="M57.7474 34.8358C54.6155 34.8358 51.9781 33.8467 49.8353 31.7039C47.6924 29.561 46.5386 26.9237 46.5386 23.7918C46.5386 20.6599 47.6924 18.0226 49.8353 15.8797C51.9781 13.7369 54.6155 12.583 57.7474 12.583C60.8792 12.583 63.5166 13.7369 65.6594 15.8797C67.8023 18.0226 68.9562 20.6599 68.9562 23.7918C68.9562 26.9237 67.8023 29.561 65.6594 31.7039C63.3518 33.8467 60.7144 34.8358 57.7474 34.8358ZM57.7474 28.7369C59.066 28.7369 60.2199 28.2424 61.2089 27.4182C62.1979 26.4292 62.5276 25.2753 62.5276 23.7918C62.5276 22.3083 62.0331 21.1544 61.2089 20.1654C60.2199 19.3413 59.066 18.8467 57.7474 18.8467C56.4287 18.8467 55.2748 19.3413 54.2858 20.1654C53.2968 21.1544 52.9671 22.3083 52.9671 23.7918C52.9671 25.2753 53.4617 26.4292 54.2858 27.4182C55.11 28.2424 56.2638 28.7369 57.7474 28.7369Z" fill="#624CE0"/>
<path d="M92.1979 5V34.3407H85.9342V32.3626C84.4506 34.011 82.3078 35 79.6704 35C76.8682 35 74.5605 34.011 72.5825 31.8681C70.6045 29.7253 69.6155 27.0879 69.6155 23.956C69.6155 20.8242 70.6045 18.1868 72.5825 16.044C74.5605 13.9011 76.8682 12.7473 79.6704 12.7473C82.3078 12.7473 84.4506 13.5714 85.9342 15.3846V11.2637C85.9342 7.8022 88.7364 5 92.1979 5ZM80.8243 28.9011C82.3078 28.9011 83.4616 28.4066 84.4506 27.5824C85.4397 26.5934 85.7693 25.4396 85.7693 23.7912C85.7693 22.1429 85.2748 20.989 84.4506 20C83.4616 19.011 82.3078 18.6813 80.8243 18.6813C79.3408 18.6813 78.1869 19.1758 77.1979 20C76.2089 20.989 75.8792 22.1429 75.8792 23.7912C75.8792 25.4396 76.3737 26.5934 77.1979 27.5824C78.1869 28.4066 79.3408 28.9011 80.8243 28.9011Z" fill="#624CE0"/>
<path d="M104.066 34.8358C100.934 34.8358 98.297 33.8467 96.1541 31.7039C94.0113 29.561 92.8574 26.9237 92.8574 23.7918C92.8574 20.6599 94.0113 18.0226 96.1541 15.8797C98.297 13.7369 100.934 12.583 104.066 12.583C107.198 12.583 109.835 13.7369 111.978 15.8797C114.121 18.0226 115.275 20.6599 115.275 23.7918C115.275 26.9237 114.121 29.561 111.978 31.7039C109.835 33.8467 107.198 34.8358 104.066 34.8358ZM104.066 28.7369C105.385 28.7369 106.539 28.2424 107.528 27.4182C108.517 26.4292 108.846 25.2753 108.846 23.7918C108.846 22.3083 108.352 21.1544 107.528 20.1654C106.539 19.1764 105.55 18.8467 104.066 18.8467C102.583 18.8467 101.594 19.3413 100.605 20.1654C99.6157 21.1544 99.286 22.3083 99.286 23.7918C99.286 25.2753 99.7805 26.4292 100.605 27.4182C101.594 28.2424 102.748 28.7369 104.066 28.7369Z" fill="#624CE0"/>
</svg>
