<svg width="135" height="40" viewBox="0 0 135 40" fill="none" xmlns="http://www.w3.org/2000/svg">
<path d="M130 -0.000366211H5C2.23858 -0.000366211 0 2.23821 0 4.99963V34.9996C0 37.7611 2.23858 39.9996 5 39.9996H130C132.761 39.9996 135 37.7611 135 34.9996V4.99963C135 2.23821 132.761 -0.000366211 130 -0.000366211Z" fill="black"/>
<path d="M130 0.799678C131.114 0.800964 132.181 1.24391 132.968 2.03133C133.756 2.81875 134.199 3.88634 134.2 4.99988V34.9999C134.199 36.1134 133.756 37.181 132.968 37.9684C132.181 38.7558 131.114 39.1988 130 39.2001H5C3.88645 39.1988 2.81888 38.7559 2.0315 37.9684C1.24412 37.181 0.801231 36.1134 0.8 34.9999V4.99988C0.801212 3.88632 1.24409 2.81872 2.03148 2.0313C2.81886 1.24388 3.88644 0.800943 5 0.799678H130ZM130 -0.00012207H5C3.67511 0.00375603 2.40559 0.531785 1.46875 1.46863C0.531908 2.40547 0.0038781 3.67499 0 4.99988L0 34.9999C0.0038781 36.3248 0.531908 37.5943 1.46875 38.5311C2.40559 39.468 3.67511 39.996 5 39.9999H130C131.325 39.996 132.594 39.468 133.531 38.5311C134.468 37.5943 134.996 36.3248 135 34.9999V4.99988C134.996 3.67499 134.468 2.40547 133.531 1.46863C132.594 0.531785 131.325 0.00375603 130 -0.00012207Z" fill="#A6A6A6"/>
<path d="M47.4184 10.243C47.4366 10.6099 47.3799 10.9767 47.2518 11.3211C47.1237 11.6654 46.9268 11.98 46.6732 12.2459C46.389 12.5406 46.0457 12.7721 45.6659 12.925C45.2861 13.078 44.8783 13.1491 44.4691 13.1336C44.0573 13.1373 43.649 13.0586 43.268 12.9022C42.8871 12.7458 42.5412 12.5148 42.2508 12.2229C41.9604 11.9309 41.7313 11.5839 41.5769 11.2021C41.4226 10.8203 41.3461 10.4115 41.352 9.99977C41.3462 9.58801 41.4227 9.17923 41.577 8.79744C41.7314 8.41566 41.9605 8.06858 42.2509 7.77659C42.5413 7.4846 42.8871 7.25358 43.268 7.09712C43.649 6.94066 44.0573 6.8619 44.4691 6.86547C44.8925 6.86419 45.3116 6.94979 45.7006 7.11697C46.0619 7.26341 46.3834 7.49312 46.6391 7.78737L46.1117 8.31517C45.9107 8.07862 45.6581 7.89141 45.3733 7.76798C45.0885 7.64455 44.7791 7.58819 44.4691 7.60327C44.157 7.60166 43.8478 7.66305 43.56 7.78376C43.2722 7.90447 43.0118 8.08202 42.7942 8.30578C42.5767 8.52954 42.4065 8.79491 42.2939 9.08598C42.1814 9.37706 42.1287 9.68786 42.1391 9.99977C42.1317 10.467 42.2631 10.9259 42.5168 11.3182C42.7705 11.7106 43.135 12.0188 43.5641 12.2038C43.9932 12.3887 44.4676 12.4421 44.927 12.3571C45.3865 12.2721 45.8104 12.0526 46.1449 11.7264C46.4528 11.3946 46.6313 10.9633 46.6478 10.511H44.4691V9.79027H47.3764C47.4039 9.93962 47.4179 10.0911 47.4184 10.243Z" fill="white" stroke="white" stroke-width="0.2" stroke-miterlimit="10"/>
<path d="M52.0277 7.73706H49.2953V9.63936H51.7592V10.3602H49.2953V12.2625H52.0277V12.9998H48.5248V6.99976H52.0277V7.73706Z" fill="white" stroke="white" stroke-width="0.2" stroke-miterlimit="10"/>
<path d="M55.2787 12.9998H54.5072V7.73706H52.8314V6.99976H56.9545V7.73706H55.2787V12.9998Z" fill="white" stroke="white" stroke-width="0.2" stroke-miterlimit="10"/>
<path d="M59.9379 12.9998V6.99976H60.7084V12.9998H59.9379Z" fill="white" stroke="white" stroke-width="0.2" stroke-miterlimit="10"/>
<path d="M64.1284 12.9998H63.3569V7.73706H61.6812V6.99976H65.8042V7.73706H64.1284V12.9998Z" fill="white" stroke="white" stroke-width="0.2" stroke-miterlimit="10"/>
<path d="M73.6093 12.2244C73.0253 12.8066 72.2343 13.1336 71.4096 13.1336C70.5849 13.1336 69.7939 12.8066 69.2099 12.2244C68.921 11.9318 68.6939 11.584 68.542 11.2019C68.3902 10.8197 68.3168 10.4109 68.3261 9.99978C68.3168 9.58866 68.3902 9.17987 68.542 8.79771C68.6939 8.41554 68.921 8.06781 69.2099 7.77518C69.4986 7.48645 69.8413 7.25748 70.2186 7.10138C70.5958 6.94528 71.0002 6.86512 71.4085 6.86548C71.8167 6.86584 72.2209 6.94672 72.5979 7.10349C72.9749 7.26026 73.3173 7.48983 73.6054 7.77908C73.8945 8.07094 74.1221 8.41789 74.2746 8.79936C74.4271 9.18083 74.5014 9.58904 74.4931 9.99978C74.5022 10.4109 74.4286 10.8196 74.2768 11.2017C74.125 11.5838 73.898 11.9316 73.6093 12.2244ZM69.7792 11.722C70.2117 12.1538 70.7979 12.3963 71.4091 12.3963C72.0203 12.3963 72.6065 12.1538 73.039 11.722C73.2608 11.4949 73.4343 11.2252 73.5489 10.9292C73.6635 10.6332 73.717 10.317 73.706 9.99978C73.717 9.68254 73.6635 9.36636 73.5489 9.07036C73.4343 8.77435 73.2608 8.50466 73.039 8.27758C72.6065 7.84578 72.0203 7.60327 71.4091 7.60327C70.7979 7.60327 70.2117 7.84578 69.7792 8.27758C69.5577 8.50484 69.3845 8.77459 69.2701 9.07056C69.1556 9.36654 69.1022 9.68263 69.1132 9.99978C69.1022 10.3169 69.1556 10.633 69.2701 10.929C69.3845 11.225 69.5577 11.4947 69.7792 11.722Z" fill="white" stroke="white" stroke-width="0.2" stroke-miterlimit="10"/>
<path d="M75.5751 12.9998V6.99976H76.5136L79.4296 11.6673H79.4628L79.4296 10.511V6.99976H80.2011V12.9998H79.3964L76.3456 8.10616H76.3124L76.3456 9.26246V12.9998H75.5751Z" fill="white" stroke="white" stroke-width="0.2" stroke-miterlimit="10"/>
<path d="M68.1357 21.7513C67.2952 21.7545 66.4745 22.0067 65.7772 22.476C65.0799 22.9452 64.5373 23.6106 64.2178 24.3881C63.8984 25.1655 63.8165 26.0202 63.9824 26.8441C64.1483 27.6681 64.5547 28.4244 65.1501 29.0177C65.7456 29.6109 66.5035 30.0143 67.3281 30.1771C68.1527 30.3399 69.007 30.2547 69.7832 29.9324C70.5595 29.61 71.2228 29.0648 71.6894 28.3657C72.156 27.6666 72.4051 26.845 72.405 26.0044C72.4133 25.4423 72.3084 24.8842 72.0966 24.3634C71.8847 23.8425 71.5703 23.3697 71.172 22.9729C70.7737 22.5761 70.2996 22.2634 69.778 22.0536C69.2564 21.8437 68.6979 21.7409 68.1357 21.7513ZM68.1357 28.5821C67.6181 28.619 67.1014 28.4993 66.6528 28.2384C66.2042 27.9775 65.8445 27.5876 65.6207 27.1194C65.3968 26.6513 65.319 26.1265 65.3975 25.6136C65.476 25.1006 65.7071 24.6232 66.0608 24.2434C66.4144 23.8636 66.8742 23.5991 67.3803 23.4843C67.8864 23.3695 68.4153 23.4098 68.8982 23.5998C69.3811 23.7898 69.7956 24.1208 70.0877 24.5497C70.3799 24.9786 70.5361 25.4855 70.5361 26.0044C70.5519 26.3323 70.5018 26.6599 70.389 26.9682C70.2761 27.2764 70.1028 27.5589 69.8791 27.7991C69.6554 28.0393 69.386 28.2323 69.0866 28.3668C68.7872 28.5013 68.4639 28.5745 68.1357 28.5821ZM58.8223 21.7513C57.9818 21.7545 57.1611 22.0066 56.4638 22.4759C55.7665 22.9452 55.2238 23.6105 54.9044 24.388C54.5849 25.1654 54.503 26.0201 54.6689 26.8441C54.8348 27.6681 55.2411 28.4244 55.8366 29.0176C56.4321 29.6108 57.1899 30.0143 58.0145 30.1771C58.8391 30.3399 59.6935 30.2548 60.4697 29.9324C61.246 29.61 61.9093 29.0648 62.3759 28.3657C62.8425 27.6666 63.0916 26.845 63.0915 26.0044C63.0998 25.4423 62.9949 24.8842 62.7831 24.3634C62.5713 23.8426 62.2568 23.3697 61.8585 22.9729C61.4602 22.5761 60.9862 22.2635 60.4646 22.0536C59.943 21.8437 59.3845 21.741 58.8223 21.7513ZM58.8223 28.5821C58.3047 28.619 57.788 28.4993 57.3394 28.2384C56.8908 27.9775 56.5311 27.5876 56.3073 27.1194C56.0834 26.6513 56.0056 26.1265 56.0841 25.6136C56.1626 25.1006 56.3937 24.6232 56.7474 24.2434C57.101 23.8636 57.5608 23.5991 58.0669 23.4843C58.573 23.3695 59.1019 23.4098 59.5848 23.5998C60.0677 23.7898 60.4822 24.1208 60.7743 24.5497C61.0665 24.9786 61.2227 25.4855 61.2227 26.0044C61.2385 26.3323 61.1884 26.66 61.0756 26.9682C60.9628 27.2764 60.7894 27.5589 60.5657 27.7991C60.342 28.0393 60.0726 28.2323 59.7732 28.3668C59.4738 28.5013 59.1505 28.5745 58.8223 28.5821ZM47.7435 23.0563V24.8606H52.0612C51.9989 25.7069 51.6526 26.5074 51.0784 27.1322C50.6458 27.5733 50.1254 27.9187 49.551 28.1462C48.9766 28.3738 48.3609 28.4783 47.7435 28.4532C46.4815 28.4362 45.277 27.9228 44.3906 27.0243C43.5042 26.1259 43.0072 24.9145 43.0072 23.6523C43.0072 22.3902 43.5042 21.1788 44.3906 20.2803C45.277 19.3819 46.4815 18.8685 47.7435 18.8514C48.9558 18.8356 50.1253 19.2987 50.9979 20.1402L52.2706 18.8675C51.6752 18.2781 50.9681 17.8134 50.1907 17.5008C49.4133 17.1882 48.5813 17.0339 47.7435 17.047C46.868 17.0343 45.9987 17.1957 45.1862 17.522C44.3736 17.8482 43.634 18.3327 43.0104 18.9473C42.3867 19.5619 41.8915 20.2944 41.5535 21.1021C41.2155 21.9099 41.0414 22.7767 41.0414 23.6523C41.0414 24.5279 41.2155 25.3948 41.5535 26.2025C41.8915 27.0103 42.3867 27.7427 43.0104 28.3574C43.634 28.972 44.3736 29.4565 45.1862 29.7827C45.9987 30.109 46.868 30.2704 47.7435 30.2576C48.599 30.2931 49.4522 30.1463 50.2466 29.8269C51.041 29.5074 51.7584 29.0227 52.3511 28.4049C53.4036 27.2562 53.9645 25.7412 53.9139 24.184C53.9181 23.8059 53.8857 23.4282 53.8171 23.0563H47.7435ZM93.0518 24.4578C92.7962 23.6875 92.3097 23.0145 91.6583 22.5302C91.0069 22.046 90.2222 21.7741 89.4108 21.7513C88.8644 21.7547 88.3243 21.8689 87.8232 22.0869C87.3221 22.305 86.8704 22.6224 86.4955 23.0199C86.1205 23.4175 85.8301 23.8869 85.6417 24.3999C85.4533 24.9129 85.3709 25.4587 85.3994 26.0044C85.3871 26.5636 85.4876 27.1195 85.695 27.639C85.9024 28.1585 86.2123 28.6308 86.6063 29.0278C87.0002 29.4248 87.4702 29.7383 87.9881 29.9496C88.5059 30.1609 89.0611 30.2657 89.6203 30.2576C90.321 30.2615 91.0116 30.0913 91.6302 29.7623C92.2489 29.4333 92.7761 28.9558 93.1645 28.3727L91.7146 27.4061C91.4974 27.7669 91.1902 28.0649 90.823 28.2711C90.4559 28.4773 90.0414 28.5845 89.6203 28.5821C89.187 28.5987 88.7588 28.4847 88.391 28.2549C88.0233 28.0251 87.7331 27.6901 87.5581 27.2933L93.2452 24.9412L93.0518 24.4578ZM87.2521 25.8756C87.2321 25.5661 87.274 25.2556 87.3754 24.9625C87.4768 24.6693 87.6357 24.3993 87.8427 24.1683C88.0497 23.9373 88.3007 23.7498 88.581 23.617C88.8614 23.4842 89.1654 23.4086 89.4753 23.3946C89.7979 23.3734 90.1197 23.4476 90.4005 23.6081C90.6813 23.7685 90.9086 24.0081 91.0541 24.2968L87.2521 25.8756ZM82.6283 29.9998H84.4971V17.4982H82.6283V29.9998ZM79.5673 22.7018H79.5029C79.2188 22.3932 78.8721 22.1487 78.4859 21.9848C78.0997 21.8208 77.683 21.7413 77.2635 21.7513C76.1669 21.798 75.1306 22.2665 74.3711 23.059C73.6116 23.8515 73.1876 24.9068 73.1876 26.0045C73.1876 27.1022 73.6116 28.1574 74.3711 28.95C75.1306 29.7425 76.1669 30.211 77.2635 30.2576C77.6846 30.2688 78.1031 30.1882 78.4898 30.0212C78.8766 29.8543 79.2223 29.6051 79.5029 29.291H79.5673V29.9032C79.5673 31.5304 78.6974 32.4003 77.2957 32.4003C76.8286 32.3892 76.3754 32.2392 75.9938 31.9695C75.6122 31.6998 75.3196 31.3226 75.1531 30.8859L73.5259 31.5626C73.8326 32.3093 74.3553 32.9474 75.0269 33.3952C75.6985 33.8429 76.4886 34.0799 77.2957 34.0758C79.4868 34.0758 81.3395 32.787 81.3395 29.6454V22.009H79.5673V22.7018ZM77.4247 28.5821C76.7788 28.5274 76.177 28.2321 75.7384 27.7547C75.2998 27.2774 75.0564 26.6527 75.0564 26.0045C75.0564 25.3562 75.2998 24.7316 75.7384 24.2543C76.177 23.7769 76.7788 23.4816 77.4247 23.4268C77.7461 23.4425 78.061 23.5228 78.3507 23.6628C78.6404 23.8027 78.8989 23.9996 79.1109 24.2417C79.3229 24.4837 79.4839 24.7659 79.5845 25.0716C79.6851 25.3772 79.7231 25.6999 79.6962 26.0205C79.7214 26.3392 79.682 26.6596 79.5804 26.9627C79.4788 27.2657 79.3172 27.5452 79.1051 27.7843C78.8931 28.0234 78.635 28.2174 78.3462 28.3544C78.0575 28.4915 77.7441 28.569 77.4247 28.5821ZM101.806 17.4984H97.3345V29.9998H99.2002V25.2634H101.806C102.334 25.2924 102.862 25.2134 103.358 25.0314C103.854 24.8493 104.308 24.568 104.692 24.2047C105.076 23.8413 105.381 23.4035 105.59 22.918C105.799 22.4325 105.907 21.9095 105.907 21.3809C105.907 20.8524 105.799 20.3294 105.59 19.8439C105.381 19.3584 105.076 18.9206 104.692 18.5572C104.308 18.1939 103.854 17.9126 103.358 17.7305C102.862 17.5485 102.334 17.4695 101.806 17.4984ZM101.854 23.5236H99.2002V19.2383H101.854C102.139 19.2324 102.422 19.2835 102.688 19.3885C102.953 19.4935 103.194 19.6504 103.398 19.85C103.602 20.0495 103.764 20.2877 103.874 20.5506C103.985 20.8135 104.041 21.0958 104.041 21.381C104.041 21.6662 103.985 21.9485 103.874 22.2114C103.764 22.4743 103.602 22.7125 103.398 22.912C103.194 23.1116 102.953 23.2684 102.688 23.3735C102.422 23.4785 102.139 23.5295 101.854 23.5236ZM113.386 21.7283C112.705 21.6886 112.027 21.8485 111.435 22.1885C110.844 22.5285 110.365 23.0337 110.056 23.6422L111.713 24.3338C111.877 24.0318 112.126 23.7842 112.429 23.6214C112.732 23.4586 113.075 23.3875 113.418 23.417C113.891 23.3708 114.363 23.5142 114.731 23.8157C115.099 24.1171 115.332 24.5521 115.38 25.0253V25.154C114.781 24.8357 114.112 24.67 113.434 24.6715C111.649 24.6715 109.831 25.6526 109.831 27.4861C109.849 27.8725 109.943 28.2515 110.11 28.6006C110.277 28.9497 110.512 29.2617 110.801 29.5182C111.091 29.7748 111.429 29.9705 111.795 30.0938C112.162 30.2172 112.55 30.2657 112.935 30.2363C113.405 30.264 113.874 30.1652 114.292 29.9502C114.711 29.7352 115.064 29.412 115.316 29.014H115.38V29.979H117.181V25.1862C117.181 22.9667 115.525 21.7283 113.386 21.7283ZM113.16 28.5797C112.549 28.5797 111.697 28.2742 111.697 27.5182C111.697 26.5533 112.758 26.1833 113.675 26.1833C114.271 26.1675 114.859 26.3119 115.38 26.6015C115.311 27.1438 115.049 27.6429 114.641 28.0065C114.233 28.3702 113.707 28.5738 113.16 28.5797ZM123.743 22.0017L121.604 27.4217H121.54L119.32 22.0017H117.31L120.639 29.5769L118.741 33.7907H120.687L125.818 22.0017H123.743ZM106.936 29.9998H108.802V17.4984H106.936V29.9998Z" fill="white"/>
<path d="M10.4353 7.53769C10.1074 7.92976 9.94182 8.43239 9.97251 8.94259V31.0587C9.94173 31.5689 10.1073 32.0716 10.4353 32.4636L10.5093 32.5357L22.8983 20.1468V19.8545L10.5093 7.46509L10.4353 7.53769Z" fill="url(#paint0_linear)"/>
<path d="M27.0277 24.2782L22.8983 20.1468V19.8545L27.0287 15.7241L27.1218 15.7772L32.0146 18.5573C33.4122 19.3513 33.4122 20.6505 32.0146 21.445L27.1218 24.2251L27.0277 24.2782Z" fill="url(#paint1_linear)"/>
<path d="M27.1218 24.2246L22.8983 20.0007L10.4353 32.4636C10.7201 32.7148 11.0837 32.8584 11.4633 32.8696C11.8428 32.8808 12.2143 32.7589 12.5134 32.525L27.1218 24.2246Z" fill="url(#paint2_linear)"/>
<path d="M27.1218 15.7767L12.5134 7.47629C12.2143 7.24238 11.8428 7.12048 11.4633 7.13169C11.0837 7.14291 10.7201 7.28653 10.4353 7.53769L22.8983 20.0007L27.1218 15.7767Z" fill="url(#paint3_linear)"/>
<path opacity="0.2" d="M27.0287 24.1316L12.5134 32.3789C12.2258 32.5978 11.8748 32.7173 11.5134 32.7192C11.152 32.7211 10.7997 32.6054 10.5098 32.3896L10.4353 32.4641L10.5093 32.5362L10.5098 32.5357C10.7997 32.7517 11.1519 32.8674 11.5134 32.8655C11.8749 32.8636 12.2259 32.744 12.5134 32.525L27.1218 24.2246L27.0287 24.1316Z" fill="black"/>
<path opacity="0.12" d="M10.4353 32.318C10.1074 31.9259 9.94183 31.4233 9.97248 30.9131V31.0592C9.94181 31.5694 10.1074 32.072 10.4353 32.4641L10.5098 32.3896L10.4353 32.318Z" fill="black"/>
<path opacity="0.12" d="M32.0146 21.2984L27.0287 24.1316L27.1218 24.2246L32.0146 21.4445C32.3024 21.3196 32.5515 21.1198 32.7358 20.8659C32.9202 20.6121 33.0331 20.3134 33.0629 20.0011C33.001 20.2839 32.8741 20.5485 32.6921 20.7737C32.5101 20.9989 32.2781 21.1785 32.0146 21.2984Z" fill="black"/>
<path opacity="0.25" d="M12.5134 7.62298L32.0146 18.703C32.2783 18.8228 32.5103 19.0025 32.6923 19.2278C32.8743 19.4531 33.0012 19.7178 33.0629 20.0008C33.0334 19.6883 32.9205 19.3895 32.7362 19.1355C32.5518 18.8816 32.3026 18.6817 32.0146 18.5569L12.5134 7.47688C11.1158 6.68278 9.97253 7.34238 9.97253 8.94318V9.08928C9.97253 7.48858 11.1158 6.82898 12.5134 7.62298Z" fill="white"/>
<defs>
<linearGradient id="paint0_linear" x1="21.7996" y1="8.7094" x2="5.01724" y2="25.4918" gradientUnits="userSpaceOnUse">
<stop stop-color="#00A0FF"/>
<stop offset="0.00657" stop-color="#00A1FF"/>
<stop offset="0.2601" stop-color="#00BEFF"/>
<stop offset="0.5122" stop-color="#00D2FF"/>
<stop offset="0.7604" stop-color="#00DFFF"/>
<stop offset="1" stop-color="#00E3FF"/>
</linearGradient>
<linearGradient id="paint1_linear" x1="33.8343" y1="20.0012" x2="9.6374" y2="20.0012" gradientUnits="userSpaceOnUse">
<stop stop-color="#FFE000"/>
<stop offset="0.4087" stop-color="#FFBD00"/>
<stop offset="0.7754" stop-color="#FFA500"/>
<stop offset="1" stop-color="#FF9C00"/>
</linearGradient>
<linearGradient id="paint2_linear" x1="24.8269" y1="22.2958" x2="2.06857" y2="45.0541" gradientUnits="userSpaceOnUse">
<stop stop-color="#FF3A44"/>
<stop offset="1" stop-color="#C31162"/>
</linearGradient>
<linearGradient id="paint3_linear" x1="7.29723" y1="0.175871" x2="17.4598" y2="10.3384" gradientUnits="userSpaceOnUse">
<stop stop-color="#32A071"/>
<stop offset="0.0685" stop-color="#2DA771"/>
<stop offset="0.4762" stop-color="#15CF74"/>
<stop offset="0.8009" stop-color="#06E775"/>
<stop offset="1" stop-color="#00F076"/>
</linearGradient>
</defs>
</svg>
