<svg width="135" height="40" viewBox="0 0 135 40" fill="none" xmlns="http://www.w3.org/2000/svg">
<g clip-path="url(#clip0)">
<path d="M124.249 -0.000358281H10.7566C10.3429 -0.000358281 9.9342 -0.000358281 9.5216 0.00164172C9.17621 0.00364172 8.83358 0.00945172 8.48488 0.0143417C7.72733 0.0222435 6.97157 0.081318 6.22416 0.191052C5.4778 0.303174 4.75482 0.514557 4.07967 0.818052C3.40534 1.12411 2.7892 1.52181 2.25357 1.99671C1.71514 2.47028 1.26632 3.01766 0.924356 3.6178C0.581453 4.21675 0.343683 4.85858 0.219258 5.52112C0.0936495 6.18283 0.0260586 6.85216 0.0170916 7.52312C0.00662229 7.82972 0.00551669 8.13734 0 8.44398V31.5582C0.00551669 31.8687 0.00662229 32.1695 0.0170916 32.4801C0.0260614 33.1511 0.0936522 33.8204 0.219258 34.482C0.343339 35.145 0.581124 35.7872 0.924356 36.3863C1.26616 36.9845 1.71505 37.5297 2.25357 38.0006C2.78717 38.4777 3.40371 38.8756 4.07967 39.1793C4.75481 39.4836 5.47772 39.6963 6.22416 39.8101C6.9717 39.919 7.72738 39.9781 8.48488 39.9869C8.83358 39.9937 9.17621 39.9976 9.5216 39.9976C9.93419 39.9996 10.343 39.9996 10.7566 39.9996H124.249C124.655 39.9996 125.067 39.9996 125.472 39.9976C125.816 39.9976 126.169 39.9937 126.512 39.9869C127.268 39.9786 128.023 39.9195 128.769 39.8101C129.518 39.6955 130.243 39.4829 130.921 39.1793C131.597 38.8754 132.213 38.4775 132.746 38.0006C133.283 37.5279 133.733 36.9831 134.079 36.3863C134.42 35.7867 134.655 35.1446 134.777 34.482C134.903 33.8203 134.973 33.1511 134.987 32.4801C134.991 32.1695 134.991 31.8687 134.991 31.5582C135 31.1949 135 30.8336 135 30.4644V9.53577C135 9.16956 135 8.80628 134.991 8.44398C134.991 8.13734 134.991 7.82972 134.987 7.52308C134.973 6.85206 134.903 6.18288 134.777 5.52108C134.655 4.85892 134.419 4.21714 134.079 3.61776C133.383 2.41484 132.278 1.43567 130.921 0.817962C130.243 0.515209 129.518 0.303882 128.769 0.190962C128.023 0.0807445 127.269 0.0216495 126.512 0.0142017C126.169 0.00932172 125.816 0.00346172 125.472 0.00151172C125.067 -0.000488281 124.655 -0.000488281 124.249 -0.000488281V-0.000358281Z" fill="#A6A6A6"/>
<path d="M9.43001 39.1276C9.08569 39.1276 8.74969 39.1237 8.40807 39.1169C7.70037 39.1088 6.99433 39.0542 6.29574 38.9538C5.64433 38.8545 5.0133 38.6698 4.42345 38.4058C3.839 38.1439 3.30594 37.8006 2.84469 37.389C2.37676 36.9822 1.98718 36.5103 1.6914 35.9922C1.39236 35.4707 1.18541 34.9116 1.07775 34.3346C0.961494 33.7146 0.898592 33.0877 0.889592 32.4592C0.882427 32.2483 0.873047 31.5459 0.873047 31.5459V8.44055C0.873047 8.44055 0.883037 7.749 0.889648 7.54582C0.898266 6.91838 0.960802 6.29242 1.07671 5.67336C1.18457 5.09476 1.39168 4.53414 1.69088 4.01092C1.98557 3.49312 2.37299 3.02094 2.8381 2.61267C3.30269 2.20053 3.83745 1.85544 4.42289 1.58999C5.01139 1.32682 5.64123 1.14342 6.29132 1.04594C6.99221 0.944481 7.7007 0.889629 8.41085 0.881841L9.43056 0.869629H125.57L126.602 0.882332C127.306 0.889732 128.008 0.944094 128.702 1.04496C129.359 1.14366 129.995 1.32834 130.59 1.59292C131.763 2.12788 132.718 2.97423 133.32 4.01336C133.614 4.53297 133.818 5.08902 133.924 5.66262C134.042 6.28675 134.107 6.91763 134.121 7.55023C134.124 7.83349 134.124 8.13775 134.124 8.44055C134.133 8.81563 134.133 9.17264 134.133 9.53257V30.4656C134.133 30.829 134.133 31.1836 134.124 31.541C134.124 31.8663 134.124 32.1643 134.12 32.4709C134.107 33.0922 134.042 33.7119 133.927 34.3248C133.821 34.906 133.615 35.4694 133.316 35.9952C133.018 36.5077 132.631 36.9754 132.169 37.3812C131.707 37.795 131.173 38.1404 130.587 38.4039C129.994 38.6699 129.358 38.8553 128.702 38.9538C128.004 39.0548 127.297 39.1093 126.59 39.1169C126.259 39.1237 125.912 39.1276 125.576 39.1276L124.35 39.1296L9.43001 39.1276Z" fill="black"/>
<path d="M32.7973 20.3003C32.8081 19.4657 33.0298 18.6473 33.4418 17.9213C33.8538 17.1954 34.4428 16.5854 35.1539 16.1483C34.7021 15.5031 34.1062 14.9722 33.4134 14.5976C32.7205 14.2231 31.9499 14.0152 31.1627 13.9906C29.4835 13.8143 27.8555 14.9954 26.9998 14.9954C26.1275 14.9954 24.81 14.0081 23.3913 14.0373C22.4736 14.0669 21.5793 14.3338 20.7954 14.8118C20.0115 15.2899 19.3649 15.9629 18.9184 16.7651C16.9844 20.1136 18.427 25.0346 20.2796 27.7412C21.2065 29.0666 22.2898 30.547 23.7072 30.4945C25.0943 30.437 25.6123 29.61 27.2866 29.61C28.9454 29.61 29.4314 30.4945 30.8776 30.4611C32.366 30.437 33.3038 29.1299 34.1981 27.792C34.8641 26.8476 35.3766 25.8039 35.7166 24.6995C34.8518 24.3338 34.1139 23.7216 33.5948 22.9393C33.0757 22.157 32.7983 21.2392 32.7973 20.3003Z" fill="white"/>
<path d="M30.0656 12.2106C30.8772 11.2364 31.277 9.9842 31.1802 8.71997C29.9403 8.85019 28.7951 9.44275 27.9726 10.3796C27.5704 10.8372 27.2624 11.3697 27.0662 11.9465C26.87 12.5232 26.7893 13.133 26.8289 13.741C27.449 13.7474 28.0625 13.6129 28.6232 13.3479C29.1838 13.0828 29.6771 12.6939 30.0656 12.2106Z" fill="white"/>
<path d="M50.3307 27.1393H45.5973L44.4606 30.4958H42.4557L46.9391 18.0778H49.0221L53.5055 30.4958H51.4664L50.3307 27.1393ZM46.0875 25.5905H49.8395L47.9899 20.1432H47.9381L46.0875 25.5905Z" fill="white"/>
<path d="M63.1881 25.9695C63.1881 28.7829 61.6823 30.5905 59.4098 30.5905C58.8342 30.6207 58.2617 30.4881 57.7579 30.2079C57.2541 29.9278 56.8394 29.5114 56.5612 29.0065H56.5182V33.4909H54.6598V21.4421H56.4586V22.948H56.4928C56.7838 22.4455 57.2055 22.0313 57.7131 21.7495C58.2208 21.4676 58.7953 21.3287 59.3756 21.3474C61.6735 21.3474 63.1881 23.1638 63.1881 25.9695ZM61.278 25.9695C61.278 24.1365 60.3307 22.9314 58.8854 22.9314C57.4655 22.9314 56.5104 24.1618 56.5104 25.9695C56.5104 27.7937 57.4655 29.0154 58.8854 29.0154C60.3307 29.0154 61.278 27.8191 61.278 25.9695Z" fill="white"/>
<path d="M73.153 25.9694C73.153 28.7829 71.6471 30.5905 69.3747 30.5905C68.799 30.6206 68.2265 30.488 67.7227 30.2079C67.2189 29.9278 66.8042 29.5114 66.526 29.0065H66.483V33.4909H64.6246V21.4421H66.4235V22.948H66.4576C66.7486 22.4455 67.1703 22.0313 67.678 21.7495C68.1856 21.4676 68.7601 21.3287 69.3405 21.3474C71.6383 21.3474 73.153 23.1638 73.153 25.9694ZM71.2428 25.9694C71.2428 24.1364 70.2956 22.9314 68.8502 22.9314C67.4303 22.9314 66.4752 24.1618 66.4752 25.9694C66.4752 27.7937 67.4303 29.0153 68.8502 29.0153C70.2956 29.0153 71.2428 27.8191 71.2428 25.9694H71.2428Z" fill="white"/>
<path d="M79.7389 27.0358C79.8766 28.2673 81.0729 29.0758 82.7077 29.0758C84.2741 29.0758 85.401 28.2672 85.401 27.1569C85.401 26.193 84.7213 25.6159 83.112 25.2203L81.5026 24.8326C79.2223 24.2819 78.1637 23.2155 78.1637 21.485C78.1637 19.3424 80.0309 17.8707 82.6823 17.8707C85.3063 17.8707 87.1051 19.3424 87.1657 21.485H85.2897C85.1774 20.2457 84.153 19.4977 82.6559 19.4977C81.1588 19.4977 80.1344 20.2545 80.1344 21.3561C80.1344 22.234 80.7887 22.7506 82.3893 23.1461L83.7574 23.482C86.3053 24.0846 87.3639 25.108 87.3639 26.9244C87.3639 29.2476 85.5133 30.7027 82.5699 30.7027C79.816 30.7027 77.9567 29.2818 77.8365 27.0357L79.7389 27.0358Z" fill="white"/>
<path d="M91.3746 19.2994V21.442H93.0963V22.9137H91.3746V27.9049C91.3746 28.6803 91.7194 29.0416 92.4762 29.0416C92.6806 29.0381 92.8846 29.0237 93.0875 28.9986V30.4615C92.7472 30.5251 92.4014 30.5539 92.0553 30.5475C90.2223 30.5475 89.5074 29.859 89.5074 28.1031V22.9137H88.191V21.442H89.5074V19.2994H91.3746Z" fill="white"/>
<path d="M94.0934 25.9694C94.0934 23.1207 95.7712 21.3307 98.3874 21.3307C101.012 21.3307 102.682 23.1207 102.682 25.9694C102.682 28.8258 101.021 30.608 98.3874 30.608C95.7545 30.608 94.0934 28.8258 94.0934 25.9694ZM100.789 25.9694C100.789 24.0153 99.8932 22.8619 98.3874 22.8619C96.8815 22.8619 95.987 24.024 95.987 25.9694C95.987 27.9313 96.8815 29.0758 98.3874 29.0758C99.8932 29.0758 100.789 27.9313 100.789 25.9694H100.789Z" fill="white"/>
<path d="M104.214 21.442H105.987V22.983H106.03C106.15 22.5017 106.432 22.0764 106.828 21.7785C107.225 21.4806 107.712 21.3284 108.208 21.3473C108.422 21.3465 108.635 21.3698 108.844 21.4166V23.1549C108.574 23.0723 108.292 23.0343 108.009 23.0426C107.739 23.0316 107.47 23.0792 107.22 23.1821C106.971 23.285 106.746 23.4408 106.562 23.6386C106.378 23.8365 106.239 24.0719 106.155 24.3286C106.07 24.5852 106.042 24.8571 106.073 25.1256V30.4957H104.214L104.214 21.442Z" fill="white"/>
<path d="M117.413 27.8365C117.163 29.4801 115.562 30.608 113.514 30.608C110.88 30.608 109.246 28.8434 109.246 26.0123C109.246 23.1725 110.889 21.3307 113.436 21.3307C115.941 21.3307 117.516 23.0514 117.516 25.7965V26.4332H111.122V26.5455C111.092 26.8787 111.134 27.2144 111.244 27.5302C111.354 27.8461 111.53 28.1349 111.761 28.3774C111.991 28.62 112.27 28.8107 112.58 28.937C112.89 29.0633 113.223 29.1223 113.557 29.11C113.996 29.1511 114.437 29.0494 114.814 28.82C115.191 28.5905 115.483 28.2456 115.648 27.8365L117.413 27.8365ZM111.13 25.1344H115.657C115.674 24.8348 115.628 24.535 115.523 24.2538C115.419 23.9726 115.257 23.716 115.049 23.5003C114.84 23.2845 114.589 23.1142 114.312 23C114.034 22.8857 113.736 22.8301 113.436 22.8365C113.134 22.8347 112.834 22.8929 112.553 23.0076C112.273 23.1224 112.019 23.2914 111.805 23.5051C111.59 23.7187 111.42 23.9727 111.305 24.2523C111.189 24.532 111.13 24.8318 111.13 25.1344V25.1344Z" fill="white"/>
<path d="M45.8546 8.73065C46.2442 8.70269 46.6352 8.76155 46.9993 8.90298C47.3634 9.04441 47.6916 9.26489 47.9602 9.54852C48.2288 9.83214 48.4311 10.1718 48.5525 10.5431C48.6739 10.9144 48.7114 11.308 48.6622 11.6955C48.6622 13.6017 47.632 14.6975 45.8546 14.6975H43.6993V8.73065H45.8546ZM44.6261 13.8536H45.7511C46.0295 13.8703 46.3081 13.8246 46.5666 13.72C46.8252 13.6154 47.0571 13.4545 47.2456 13.2489C47.4341 13.0433 47.5744 12.7983 47.6563 12.5317C47.7381 12.2651 47.7595 11.9836 47.7189 11.7076C47.7566 11.4328 47.733 11.153 47.6499 10.8884C47.5668 10.6237 47.4262 10.3807 47.2381 10.1768C47.05 9.97285 46.8192 9.81304 46.5621 9.70881C46.305 9.60457 46.0281 9.55849 45.7511 9.57386H44.6261V13.8536Z" fill="white"/>
<path d="M49.7091 12.444C49.6808 12.1481 49.7147 11.8496 49.8085 11.5675C49.9024 11.2854 50.0541 11.0261 50.2541 10.8061C50.454 10.5861 50.6977 10.4103 50.9696 10.2901C51.2414 10.1698 51.5354 10.1077 51.8327 10.1077C52.1299 10.1077 52.4239 10.1698 52.6958 10.2901C52.9676 10.4103 53.2113 10.5861 53.4113 10.8061C53.6112 11.0261 53.763 11.2854 53.8568 11.5675C53.9507 11.8496 53.9845 12.1481 53.9562 12.444C53.9851 12.7403 53.9516 13.0392 53.858 13.3218C53.7644 13.6043 53.6128 13.8641 53.4128 14.0845C53.2128 14.3049 52.9689 14.4811 52.6968 14.6016C52.4246 14.7221 52.1303 14.7844 51.8327 14.7844C51.5351 14.7844 51.2407 14.7221 50.9686 14.6016C50.6965 14.4811 50.4526 14.3049 50.2526 14.0845C50.0526 13.8641 49.9009 13.6043 49.8073 13.3218C49.7137 13.0392 49.6803 12.7403 49.7091 12.444ZM53.0421 12.444C53.0421 11.468 52.6037 10.8972 51.8341 10.8972C51.0617 10.8972 50.6271 11.468 50.6271 12.4441C50.6271 13.4279 51.0617 13.9943 51.8341 13.9943C52.6037 13.9943 53.0422 13.424 53.0422 12.444H53.0421Z" fill="white"/>
<path d="M59.6017 14.6974H58.6798L57.7491 11.381H57.6788L56.7521 14.6974H55.839L54.5978 10.1945H55.4991L56.3058 13.6305H56.3722L57.298 10.1945H58.1505L59.0763 13.6305H59.1466L59.9493 10.1945H60.838L59.6017 14.6974Z" fill="white"/>
<path d="M61.882 10.1945H62.7374V10.9098H62.8038C62.9165 10.6529 63.1065 10.4375 63.3474 10.2937C63.5882 10.1499 63.868 10.0849 64.1476 10.1076C64.3667 10.0911 64.5867 10.1241 64.7913 10.2042C64.9959 10.2843 65.1798 10.4094 65.3295 10.5703C65.4792 10.7311 65.5908 10.9236 65.656 11.1334C65.7212 11.3432 65.7383 11.565 65.7062 11.7824V14.6974H64.8175V12.0055C64.8175 11.2819 64.5031 10.922 63.8458 10.922C63.6971 10.9151 63.5486 10.9404 63.4105 10.9963C63.2725 11.0521 63.1481 11.1371 63.046 11.2455C62.9439 11.3539 62.8664 11.4831 62.8188 11.6242C62.7713 11.7653 62.7549 11.9151 62.7706 12.0632V14.6974H61.882L61.882 10.1945Z" fill="white"/>
<path d="M67.1222 8.43665H68.0109V14.6974H67.1222V8.43665Z" fill="white"/>
<path d="M69.2462 12.444C69.2179 12.1481 69.2518 11.8495 69.3457 11.5674C69.4395 11.2853 69.5913 11.026 69.7913 10.806C69.9912 10.586 70.235 10.4102 70.5068 10.29C70.7787 10.1697 71.0727 10.1075 71.37 10.1075C71.6673 10.1075 71.9613 10.1697 72.2332 10.29C72.505 10.4102 72.7488 10.586 72.9487 10.806C73.1487 11.026 73.3005 11.2853 73.3943 11.5674C73.4882 11.8495 73.5221 12.1481 73.4938 12.444C73.5226 12.7402 73.4891 13.0392 73.3955 13.3217C73.3019 13.6043 73.1502 13.8641 72.9502 14.0845C72.7502 14.3049 72.5062 14.481 72.2341 14.6016C71.962 14.7221 71.6676 14.7844 71.37 14.7844C71.0724 14.7844 70.778 14.7221 70.5059 14.6016C70.2338 14.481 69.9899 14.3049 69.7898 14.0845C69.5898 13.8641 69.4381 13.6043 69.3445 13.3217C69.2509 13.0392 69.2174 12.7402 69.2462 12.444ZM72.5792 12.444C72.5792 11.4679 72.1407 10.8971 71.3712 10.8971C70.5988 10.8971 70.1642 11.4679 70.1642 12.444C70.1642 13.4279 70.5988 13.9943 71.3712 13.9943C72.1408 13.9943 72.5792 13.424 72.5792 12.444H72.5792Z" fill="white"/>
<path d="M74.4293 13.4239C74.4293 12.6134 75.0328 12.1461 76.1041 12.0797L77.3239 12.0094V11.6207C77.3239 11.1451 77.0094 10.8766 76.402 10.8766C75.9059 10.8766 75.5621 11.0587 75.4635 11.3771H74.6031C74.694 10.6036 75.4215 10.1075 76.443 10.1075C77.5719 10.1075 78.2086 10.6695 78.2086 11.6207V14.6974H77.3531V14.0646H77.2828C77.1401 14.2916 76.9397 14.4766 76.7021 14.6008C76.4645 14.725 76.1981 14.784 75.9303 14.7716C75.7413 14.7912 75.5502 14.7711 75.3694 14.7124C75.1887 14.6537 75.0222 14.5577 74.8808 14.4308C74.7394 14.3038 74.6262 14.1486 74.5484 13.9752C74.4706 13.8018 74.4301 13.614 74.4293 13.4239ZM77.3239 13.0392V12.6627L76.2242 12.733C75.6041 12.7745 75.3229 12.9855 75.3229 13.3824C75.3229 13.7877 75.6744 14.0235 76.1579 14.0235C76.2995 14.0379 76.4426 14.0236 76.5786 13.9815C76.7146 13.9394 76.8408 13.8704 76.9495 13.7785C77.0583 13.6867 77.1475 13.5739 77.2118 13.4469C77.2761 13.3199 77.3142 13.1812 77.3239 13.0392Z" fill="white"/>
<path d="M79.3766 12.444C79.3766 11.0211 80.108 10.1198 81.2457 10.1198C81.5271 10.1068 81.8064 10.1742 82.051 10.3141C82.2955 10.454 82.4951 10.6606 82.6266 10.9098H82.693V8.43665H83.5817V14.6974H82.7301V13.986H82.6598C82.5182 14.2334 82.3116 14.4375 82.0623 14.576C81.8131 14.7144 81.5307 14.7821 81.2457 14.7716C80.1002 14.7716 79.3766 13.8703 79.3766 12.444ZM80.2946 12.444C80.2946 13.3991 80.7448 13.9738 81.4977 13.9738C82.2467 13.9738 82.7096 13.3908 82.7096 12.4479C82.7096 11.5094 82.2419 10.9181 81.4977 10.9181C80.7496 10.9181 80.2946 11.4967 80.2946 12.444H80.2946Z" fill="white"/>
<path d="M87.2584 12.444C87.2301 12.1481 87.2639 11.8496 87.3578 11.5675C87.4516 11.2854 87.6034 11.0261 87.8033 10.8061C88.0033 10.5861 88.247 10.4103 88.5188 10.2901C88.7907 10.1698 89.0847 10.1077 89.3819 10.1077C89.6792 10.1077 89.9732 10.1698 90.245 10.2901C90.5169 10.4103 90.7606 10.5861 90.9605 10.8061C91.1605 11.0261 91.3122 11.2854 91.4061 11.5675C91.4999 11.8496 91.5338 12.1481 91.5055 12.444C91.5343 12.7403 91.5009 13.0392 91.4073 13.3218C91.3137 13.6043 91.162 13.8641 90.962 14.0845C90.762 14.3049 90.5181 14.4811 90.246 14.6016C89.9739 14.7221 89.6796 14.7844 89.3819 14.7844C89.0843 14.7844 88.79 14.7221 88.5179 14.6016C88.2457 14.4811 88.0018 14.3049 87.8018 14.0845C87.6018 13.8641 87.4502 13.6043 87.3566 13.3218C87.263 13.0392 87.2296 12.7403 87.2584 12.444ZM90.5914 12.444C90.5914 11.468 90.1529 10.8972 89.3834 10.8972C88.6109 10.8972 88.1764 11.468 88.1764 12.4441C88.1764 13.4279 88.611 13.9943 89.3834 13.9943C90.1529 13.9943 90.5914 13.424 90.5914 12.444Z" fill="white"/>
<path d="M92.6979 10.1945H93.5533V10.9098H93.6198C93.7324 10.6529 93.9224 10.4375 94.1633 10.2937C94.4042 10.1499 94.6839 10.0849 94.9635 10.1076C95.1826 10.0911 95.4026 10.1241 95.6072 10.2042C95.8118 10.2843 95.9958 10.4094 96.1454 10.5703C96.2951 10.7311 96.4067 10.9236 96.4719 11.1334C96.5371 11.3432 96.5543 11.565 96.5221 11.7824V14.6974H95.6334V12.0055C95.6334 11.2819 95.319 10.922 94.6618 10.922C94.513 10.9151 94.3645 10.9404 94.2264 10.9963C94.0884 11.0521 93.964 11.1371 93.8619 11.2455C93.7598 11.3539 93.6823 11.4831 93.6348 11.6242C93.5872 11.7653 93.5708 11.9151 93.5865 12.0632V14.6974H92.6979V10.1945Z" fill="white"/>
<path d="M101.544 9.07336V10.215H102.519V10.9635H101.544V13.2789C101.544 13.7506 101.738 13.9572 102.18 13.9572C102.294 13.9568 102.407 13.9499 102.519 13.9366V14.6769C102.36 14.7054 102.198 14.7206 102.036 14.7223C101.047 14.7223 100.654 14.3746 100.654 13.5065V10.9635H99.9391V10.2149H100.654V9.07336H101.544Z" fill="white"/>
<path d="M103.733 8.43665H104.614V10.9181H104.684C104.802 10.6588 104.998 10.4422 105.243 10.2978C105.489 10.1535 105.773 10.0884 106.057 10.1115C106.275 10.0996 106.493 10.136 106.695 10.218C106.898 10.3001 107.079 10.4257 107.227 10.5861C107.376 10.7464 107.486 10.9375 107.552 11.1456C107.618 11.3537 107.637 11.5738 107.608 11.7902V14.6974H106.718V12.0094C106.718 11.2902 106.383 10.9259 105.756 10.9259C105.603 10.9134 105.449 10.9344 105.305 10.9874C105.162 11.0405 105.031 11.1243 104.923 11.233C104.815 11.3418 104.732 11.4728 104.68 11.6169C104.628 11.7611 104.608 11.9148 104.622 12.0675V14.6974H103.733L103.733 8.43665Z" fill="white"/>
<path d="M112.79 13.4815C112.669 13.8931 112.407 14.249 112.051 14.4872C111.694 14.7253 111.265 14.8305 110.838 14.7842C110.542 14.7921 110.247 14.7353 109.974 14.6177C109.702 14.5002 109.458 14.3248 109.26 14.1036C109.063 13.8825 108.915 13.6209 108.828 13.3371C108.742 13.0533 108.718 12.754 108.758 12.46C108.719 12.1652 108.743 11.8652 108.83 11.5805C108.916 11.2959 109.063 11.0331 109.26 10.81C109.457 10.587 109.699 10.4088 109.971 10.2876C110.242 10.1664 110.537 10.105 110.835 10.1075C112.087 10.1075 112.843 10.9635 112.843 12.3775V12.6876H109.664V12.7374C109.65 12.9026 109.671 13.069 109.725 13.2257C109.779 13.3825 109.865 13.5262 109.978 13.6476C110.091 13.7691 110.228 13.8656 110.38 13.931C110.533 13.9964 110.697 14.0292 110.863 14.0274C111.075 14.0529 111.291 14.0146 111.482 13.9174C111.672 13.8202 111.83 13.6685 111.934 13.4815L112.79 13.4815ZM109.664 12.0303H111.938C111.949 11.8792 111.929 11.7274 111.878 11.5847C111.827 11.442 111.747 11.3115 111.642 11.2016C111.538 11.0918 111.412 11.005 111.272 10.9468C111.132 10.8886 110.981 10.8604 110.83 10.8638C110.676 10.8619 110.523 10.8908 110.381 10.9487C110.239 11.0067 110.109 11.0925 110.001 11.2012C109.892 11.3099 109.806 11.4393 109.748 11.5817C109.69 11.7241 109.662 11.8766 109.664 12.0303H109.664Z" fill="white"/>
</g>
<defs>
<clipPath id="clip0">
<rect width="135" height="40" fill="white" transform="translate(0 -0.000366211)"/>
</clipPath>
</defs>
</svg>
