<svg width="130" height="29" viewBox="0 0 130 29" fill="none" xmlns="http://www.w3.org/2000/svg">
<path d="M21.6933 27.1449L22.2099 28.0001C18.8618 27.0125 15.936 26.7586 14.5963 26.5176C13.6939 26.357 12.47 25.0591 12.3328 23.2923C12.2706 22.5044 12.3928 21.7838 12.8601 21.3931C14.2662 20.2189 19.3462 21.3193 22.4457 21.6818C22.2356 21.9488 22.0342 22.2157 21.8348 22.4805C21.5776 22.8191 21.3825 23.225 21.2646 23.6634C18.0259 23.2033 14.5063 22.5695 14.4548 22.5587L14.3969 22.8365C14.4505 22.843 17.9573 23.4703 21.2025 23.9348C21.1489 24.1561 21.121 24.384 21.1146 24.6185C17.9165 24.1627 14.5084 23.5462 14.457 23.5419L14.3991 23.8132C14.4527 23.8197 17.8887 24.4361 21.1039 24.8963C21.1039 25.1133 21.121 25.3304 21.151 25.5409C18.088 25.0916 14.98 24.5295 14.9328 24.5251L14.8749 24.7964C14.9285 24.803 18.1009 25.3738 21.1982 25.8231C21.2882 26.2963 21.4576 26.7455 21.6933 27.1449Z" fill="url(#paint0_linear)"/>
<path d="M12.307 16.4551L12.3006 16.7524C12.3885 16.7524 18.1844 16.8762 22.9472 16.9673C22.8894 17.2104 22.8465 17.4665 22.8294 17.7161C18.0944 17.6271 12.3928 17.5013 12.3049 17.5013L12.2984 17.7986C12.3863 17.7986 18.0773 17.9223 22.8101 18.0135C22.7993 18.2696 22.8101 18.5192 22.8401 18.7558C18.2059 18.6733 12.8665 18.5605 12.7786 18.5539L12.7722 18.8513C12.86 18.8578 18.2337 18.9707 22.8851 19.0597C22.9901 19.6826 23.2195 20.2426 23.5474 20.6702C23.676 20.8373 23.8046 21.0023 23.929 21.1629C19.9249 20.5638 16.4654 20.1731 12.5064 20.2122C11.3339 20.2231 10.1185 18.7276 9.77772 17.2712C9.61267 16.5831 9.72413 15.9168 10.095 15.4111C10.4465 14.9292 10.9974 14.6384 11.649 14.5906C16.101 14.3649 20.5358 14.2108 24.8356 14.1392C24.647 14.2998 24.467 14.4604 24.2848 14.621C23.6632 15.1745 23.2473 15.8973 23.018 16.67C18.2552 16.5788 12.3949 16.4551 12.307 16.4551Z" fill="url(#paint1_linear)"/>
<path d="M5.90015 7.08515C6.1938 7.28701 6.48103 7.48886 6.76397 7.69072C7.44559 8.17474 7.96646 8.7738 8.33942 9.42278C16.5232 8.37877 26.2525 9.40107 26.3661 9.41409L26.3382 9.70928C26.231 9.69409 16.6154 8.69132 8.50018 9.70711C8.61379 9.94152 8.71667 10.1824 8.78955 10.4212C16.8919 9.45533 26.3468 10.4472 26.4539 10.4559L26.4261 10.7511C26.3189 10.7424 16.9369 9.76137 8.87958 10.7121C8.94603 10.9573 8.99104 11.2026 9.01676 11.4392C16.9755 10.5927 25.9631 11.5368 26.0681 11.5455L26.0402 11.8407C25.9331 11.832 16.9648 10.8922 9.04034 11.7365C9.07249 12.4007 8.95889 13.0128 8.6931 13.5011C8.56449 13.7334 8.44231 13.9635 8.32656 14.2C13.8224 13.8072 19.5348 13.5402 25.2986 13.4187C26.6426 13.3687 28.1194 12.2357 28.546 10.9052C28.7196 10.3669 28.6574 9.82866 28.3573 9.34247C27.9565 8.69132 27.1892 8.23768 26.246 8.09877C19.3419 7.18282 12.5021 6.84422 5.90015 7.08515Z" fill="url(#paint2_linear)"/>
<path d="M35.8165 1.38098C35.4414 1.51555 35.0705 1.65446 34.7019 1.79554C33.8702 2.11244 33.1221 2.57909 32.4962 3.13908C15.0226 0.660374 3.39638 2.77661 3.27206 2.80048L3.32565 3.09133C3.44997 3.06963 14.9261 0.981608 32.224 3.40605C32.0139 3.61659 31.8167 3.84232 31.6474 4.07891C14.5275 1.7326 3.18632 3.80108 3.062 3.82279L3.11559 4.11363C3.23776 4.09627 14.4739 2.04949 31.4609 4.35456C31.3109 4.58897 31.178 4.8299 31.0729 5.07299L31.0687 5.09036C14.4181 2.92854 3.43282 4.93191 3.31493 4.94928L3.36852 5.24012C3.48641 5.22276 14.3967 3.23458 30.9615 5.37686C30.6957 6.11483 30.6871 6.83544 30.925 7.4193C31.0194 7.65806 31.1094 7.89464 31.1973 8.13122C22.6427 6.52072 13.5929 5.88476 4.29664 6.26026C2.55614 6.3015 0.725609 5.38772 0.134009 4.17658C-0.0481862 3.80976 -0.0438992 3.41039 0.142583 3.02622C0.536983 2.24701 1.6173 1.61973 2.9784 1.38315C14.2574 -0.459602 25.3006 -0.461773 35.8165 1.38098Z" fill="url(#paint3_linear)"/>
<path d="M43.74 23H46.46V11.14H51V8.6H39.2V11.14H43.74V23ZM56.0309 23.32C56.8109 23.32 57.4909 23.19 58.0709 22.93C58.6509 22.67 59.1376 22.3233 59.5309 21.89V23H61.9309V12.2H59.1909V17.68C59.1909 18.3467 59.1143 18.8867 58.9609 19.3C58.8143 19.7067 58.6243 20.0167 58.3909 20.23C58.1576 20.4367 57.9076 20.5767 57.6409 20.65C57.3743 20.7233 57.1243 20.76 56.8909 20.76C56.3109 20.76 55.8609 20.63 55.5409 20.37C55.2276 20.11 55.0009 19.7867 54.8609 19.4C54.7209 19.0133 54.6376 18.63 54.6109 18.25C54.5843 17.8633 54.5709 17.5467 54.5709 17.3V12.2H51.8109V18.26C51.8109 18.44 51.8243 18.7267 51.8509 19.12C51.8776 19.5133 51.9543 19.95 52.0809 20.43C52.2076 20.9033 52.4176 21.36 52.7109 21.8C53.0109 22.24 53.4276 22.6033 53.9609 22.89C54.4943 23.1767 55.1843 23.32 56.0309 23.32ZM71.6058 23V20.74C70.9658 20.8267 70.3824 20.8533 69.8558 20.82C69.3291 20.7867 68.9458 20.58 68.7058 20.2C68.5791 20 68.5091 19.7333 68.4958 19.4C68.4891 19.06 68.4858 18.68 68.4858 18.26V14.3H71.6058V12.2H68.4858V9.2H65.7658V12.2H63.9258V14.3H65.7658V18.42C65.7658 19.0667 65.7724 19.6467 65.7858 20.16C65.7991 20.6667 65.9391 21.1667 66.2058 21.66C66.4991 22.1867 66.9258 22.57 67.4858 22.81C68.0524 23.0433 68.6924 23.1667 69.4058 23.18C70.1258 23.2 70.8591 23.14 71.6058 23ZM78.667 23.3C79.747 23.3 80.697 23.06 81.517 22.58C82.3437 22.0933 82.987 21.4233 83.447 20.57C83.9137 19.71 84.147 18.72 84.147 17.6C84.147 16.4867 83.917 15.5033 83.457 14.65C82.997 13.79 82.3537 13.1167 81.527 12.63C80.707 12.1433 79.7537 11.9 78.667 11.9C77.6004 11.9 76.657 12.14 75.837 12.62C75.017 13.1 74.3737 13.77 73.907 14.63C73.4404 15.4833 73.207 16.4733 73.207 17.6C73.207 18.7133 73.4337 19.7 73.887 20.56C74.347 21.4133 74.987 22.0833 75.807 22.57C76.627 23.0567 77.5804 23.3 78.667 23.3ZM78.667 20.76C77.8204 20.76 77.177 20.4767 76.737 19.91C76.3037 19.3367 76.087 18.5667 76.087 17.6C76.087 16.66 76.2937 15.9 76.707 15.32C77.127 14.7333 77.7804 14.44 78.667 14.44C79.527 14.44 80.1737 14.7267 80.607 15.3C81.047 15.8733 81.267 16.64 81.267 17.6C81.267 18.5267 81.0504 19.2867 80.617 19.88C80.1904 20.4667 79.5404 20.76 78.667 20.76ZM86.7461 23H89.4861V17.48C89.4861 16.2267 89.9794 15.3733 90.9661 14.92C91.2861 14.7667 91.6428 14.6767 92.0361 14.65C92.4361 14.6167 92.7861 14.6467 93.0861 14.74V12.2C92.5994 12.14 92.1128 12.1533 91.6261 12.24C91.1394 12.32 90.6994 12.48 90.3061 12.72C90.0528 12.8667 89.8294 13.0433 89.6361 13.25C89.4494 13.4567 89.2861 13.6867 89.1461 13.94V12.2H86.7461V23ZM95.5883 23H104.508V20.46H98.3083V8.6H95.5883V23ZM109.609 23.3C110.442 23.3 111.142 23.1733 111.709 22.92C112.282 22.66 112.809 22.2467 113.289 21.68V23H115.669V16.4C115.669 15.9067 115.649 15.46 115.609 15.06C115.569 14.66 115.442 14.26 115.229 13.86C114.849 13.14 114.289 12.6333 113.549 12.34C112.809 12.0467 111.962 11.9 111.009 11.9C109.709 11.9 108.682 12.18 107.929 12.74C107.175 13.3 106.662 14.0267 106.389 14.92L108.849 15.7C109.022 15.2067 109.325 14.8633 109.759 14.67C110.192 14.4767 110.609 14.38 111.009 14.38C111.649 14.38 112.125 14.5 112.439 14.74C112.752 14.9733 112.935 15.3433 112.989 15.85C111.975 15.9967 111.082 16.14 110.309 16.28C109.535 16.4133 108.889 16.5733 108.369 16.76C107.502 17.08 106.892 17.5167 106.539 18.07C106.185 18.6167 106.009 19.2667 106.009 20.02C106.009 20.62 106.145 21.17 106.419 21.67C106.699 22.1633 107.105 22.56 107.639 22.86C108.179 23.1533 108.835 23.3 109.609 23.3ZM110.189 21.16C109.722 21.16 109.352 21.0567 109.079 20.85C108.805 20.6367 108.669 20.3467 108.669 19.98C108.669 19.7067 108.755 19.4733 108.929 19.28C109.102 19.08 109.389 18.9 109.789 18.74C110.095 18.6267 110.472 18.5233 110.919 18.43C111.372 18.33 112.055 18.2033 112.969 18.05C112.962 18.31 112.942 18.5967 112.909 18.91C112.875 19.2167 112.802 19.4867 112.689 19.72C112.615 19.8733 112.475 20.0633 112.269 20.29C112.069 20.5167 111.795 20.72 111.449 20.9C111.109 21.0733 110.689 21.16 110.189 21.16ZM118.649 23H121.049V22.38C121.429 22.6733 121.862 22.9 122.349 23.06C122.835 23.22 123.375 23.3 123.969 23.3C124.962 23.3 125.832 23.05 126.579 22.55C127.325 22.05 127.905 21.37 128.319 20.51C128.739 19.65 128.949 18.68 128.949 17.6C128.949 16.5 128.735 15.5233 128.309 14.67C127.889 13.81 127.295 13.1333 126.529 12.64C125.762 12.1467 124.862 11.9 123.829 11.9C123.355 11.9 122.912 11.9567 122.499 12.07C122.092 12.1833 121.722 12.3467 121.389 12.56V8.6H118.649V23ZM123.529 20.88C122.622 20.88 121.982 20.58 121.609 19.98C121.235 19.3733 121.049 18.58 121.049 17.6C121.049 16.62 121.232 15.83 121.599 15.23C121.972 14.6233 122.582 14.32 123.429 14.32C124.035 14.32 124.532 14.47 124.919 14.77C125.312 15.0633 125.602 15.46 125.789 15.96C125.975 16.4533 126.069 17 126.069 17.6C126.069 18.2067 125.979 18.76 125.799 19.26C125.619 19.7533 125.342 20.1467 124.969 20.44C124.595 20.7333 124.115 20.88 123.529 20.88Z" fill="black"/>
<defs>
<linearGradient id="paint0_linear" x1="12.0604" y1="28.4933" x2="39.3315" y2="10.0293" gradientUnits="userSpaceOnUse">
<stop stop-color="#36A9E1"/>
<stop offset="0.0999" stop-color="#3AA7DF"/>
<stop offset="0.1887" stop-color="#44A1DA"/>
<stop offset="0.2733" stop-color="#5797D1"/>
<stop offset="0.3554" stop-color="#7089C4"/>
<stop offset="0.4356" stop-color="#9177B4"/>
<stop offset="0.5143" stop-color="#BA61A0"/>
<stop offset="0.5906" stop-color="#E94789"/>
<stop offset="0.6229" stop-color="#FF3B7E"/>
<stop offset="0.6802" stop-color="#FF417A"/>
<stop offset="0.7559" stop-color="#FE5170"/>
<stop offset="0.8417" stop-color="#FC6D5F"/>
<stop offset="0.9345" stop-color="#FB9347"/>
<stop offset="1" stop-color="#F9B233"/>
</linearGradient>
<linearGradient id="paint1_linear" x1="8.91356" y1="23.8454" x2="36.1847" y2="5.38137" gradientUnits="userSpaceOnUse">
<stop stop-color="#36A9E1"/>
<stop offset="0.0999" stop-color="#3AA7DF"/>
<stop offset="0.1887" stop-color="#44A1DA"/>
<stop offset="0.2733" stop-color="#5797D1"/>
<stop offset="0.3554" stop-color="#7089C4"/>
<stop offset="0.4356" stop-color="#9177B4"/>
<stop offset="0.5143" stop-color="#BA61A0"/>
<stop offset="0.5906" stop-color="#E94789"/>
<stop offset="0.6229" stop-color="#FF3B7E"/>
<stop offset="0.6802" stop-color="#FF417A"/>
<stop offset="0.7559" stop-color="#FE5170"/>
<stop offset="0.8417" stop-color="#FC6D5F"/>
<stop offset="0.9345" stop-color="#FB9347"/>
<stop offset="1" stop-color="#F9B233"/>
</linearGradient>
<linearGradient id="paint2_linear" x1="4.92699" y1="17.9575" x2="32.1981" y2="-0.506579" gradientUnits="userSpaceOnUse">
<stop stop-color="#36A9E1"/>
<stop offset="0.0999" stop-color="#3AA7DF"/>
<stop offset="0.1887" stop-color="#44A1DA"/>
<stop offset="0.2733" stop-color="#5797D1"/>
<stop offset="0.3554" stop-color="#7089C4"/>
<stop offset="0.4356" stop-color="#9177B4"/>
<stop offset="0.5143" stop-color="#BA61A0"/>
<stop offset="0.5906" stop-color="#E94789"/>
<stop offset="0.6229" stop-color="#FF3B7E"/>
<stop offset="0.6802" stop-color="#FF417A"/>
<stop offset="0.7559" stop-color="#FE5170"/>
<stop offset="0.8417" stop-color="#FC6D5F"/>
<stop offset="0.9345" stop-color="#FB9347"/>
<stop offset="1" stop-color="#F9B233"/>
</linearGradient>
<linearGradient id="paint3_linear" x1="2.5917" y1="14.5085" x2="29.8628" y2="-3.95559" gradientUnits="userSpaceOnUse">
<stop stop-color="#36A9E1"/>
<stop offset="0.0999" stop-color="#3AA7DF"/>
<stop offset="0.1887" stop-color="#44A1DA"/>
<stop offset="0.2733" stop-color="#5797D1"/>
<stop offset="0.3554" stop-color="#7089C4"/>
<stop offset="0.4356" stop-color="#9177B4"/>
<stop offset="0.5143" stop-color="#BA61A0"/>
<stop offset="0.5906" stop-color="#E94789"/>
<stop offset="0.6229" stop-color="#FF3B7E"/>
<stop offset="0.6802" stop-color="#FF417A"/>
<stop offset="0.7559" stop-color="#FE5170"/>
<stop offset="0.8417" stop-color="#FC6D5F"/>
<stop offset="0.9345" stop-color="#FB9347"/>
<stop offset="1" stop-color="#F9B233"/>
</linearGradient>
</defs>
</svg>
