<svg width="16" height="14" viewBox="0 0 16 14" fill="none" xmlns="http://www.w3.org/2000/svg">
<path fill-rule="evenodd" clip-rule="evenodd" d="M7.5208 4.24509L7.55438 4.79872L6.99479 4.73093C4.95791 4.47106 3.17843 3.58976 1.66756 2.10963L0.928908 1.37522L0.73865 1.91756C0.33575 3.12652 0.593158 4.40327 1.43253 5.26197C1.8802 5.73652 1.77948 5.80431 1.00725 5.52184C0.73865 5.43145 0.503625 5.36366 0.481242 5.39756C0.4029 5.47665 0.6715 6.50483 0.884142 6.91158C1.17513 7.47652 1.76828 8.03015 2.4174 8.35781L2.96579 8.61768L2.31668 8.62898C1.68994 8.62898 1.66756 8.64028 1.73471 8.87755C1.95854 9.61197 2.84268 10.3916 3.82755 10.7305L4.52143 10.9678L3.91708 11.3294C3.02175 11.8491 1.96973 12.1429 0.917717 12.1655C0.414092 12.1768 0 12.222 0 12.2559C0 12.3689 1.36538 13.0016 2.15999 13.2501C4.54382 13.9846 7.37531 13.6682 9.50173 12.414C11.0126 11.5214 12.5235 9.74755 13.2286 8.03015C13.6091 7.11496 13.9896 5.44275 13.9896 4.64054C13.9896 4.1208 14.0232 4.05301 14.6499 3.43158C15.0192 3.07002 15.3662 2.67457 15.4333 2.56158C15.5452 2.34691 15.534 2.34691 14.9633 2.53899C14.012 2.87795 13.8777 2.83275 14.3477 2.32431C14.6947 1.96275 15.1088 1.30743 15.1088 1.11535C15.1088 1.08145 14.9409 1.13795 14.7506 1.23964C14.5492 1.35262 14.1015 1.5221 13.7658 1.62379L13.1614 1.81587L12.613 1.44301C12.3108 1.23964 11.8856 1.01366 11.6617 0.945869C11.0909 0.787687 10.218 0.810285 9.70318 0.991064C8.30422 1.49951 7.42008 2.81015 7.5208 4.24509Z" fill="white"/>
</svg>
