<svg width="18" height="13" viewBox="0 0 18 13" fill="none" xmlns="http://www.w3.org/2000/svg">
<path fill-rule="evenodd" clip-rule="evenodd" d="M15.6677 0.73951C16.4021 0.94102 16.9804 1.53477 17.1767 2.28877C17.5333 3.65532 17.5333 6.50662 17.5333 6.50662C17.5333 6.50662 17.5333 9.35783 17.1767 10.7245C16.9804 11.4785 16.4021 12.0722 15.6677 12.2738C14.3369 12.64 9.00001 12.64 9.00001 12.64C9.00001 12.64 3.66309 12.64 2.33218 12.2738C1.59783 12.0722 1.0195 11.4785 0.823232 10.7245C0.466675 9.35783 0.466675 6.50662 0.466675 6.50662C0.466675 6.50662 0.466675 3.65532 0.823232 2.28877C1.0195 1.53477 1.59783 0.94102 2.33218 0.73951C3.66309 0.373291 9.00001 0.373291 9.00001 0.373291C9.00001 0.373291 14.3369 0.373291 15.6677 0.73951ZM7.40002 4.10657V9.4399L11.6667 6.77334L7.40002 4.10657Z" fill="white"/>
</svg>
