<svg width="18" height="18" viewBox="0 0 18 18" fill="none" xmlns="http://www.w3.org/2000/svg">
<path fill-rule="evenodd" clip-rule="evenodd" d="M17.5333 9.22805C17.5333 9.80514 17.4746 10.3814 17.3592 10.9432C17.2467 11.4916 17.08 12.03 16.8617 12.5447C16.6483 13.0503 16.3837 13.5375 16.0745 13.9918C15.77 14.4433 15.4191 14.8669 15.0337 15.253C14.6474 15.6375 14.2224 15.9874 13.7711 16.2932C13.3152 16.6003 12.8273 16.8645 12.3215 17.0788C11.806 17.296 11.2664 17.4624 10.7184 17.5747C10.1559 17.6904 9.57755 17.7495 8.99962 17.7495C8.42126 17.7495 7.8429 17.6904 7.28121 17.5747C6.73244 17.4624 6.19283 17.296 5.67779 17.0788C5.17195 16.8645 4.68357 16.6003 4.22772 16.2932C3.77645 15.9874 3.35143 15.6375 2.96599 15.253C2.58015 14.8669 2.22928 14.4433 1.92427 13.9918C1.61675 13.5375 1.35172 13.0502 1.13755 12.5447C0.919183 12.03 0.752114 11.4916 0.639188 10.9432C0.525025 10.3814 0.466675 9.80514 0.466675 9.22805C0.466675 8.65052 0.524992 8.07299 0.639221 7.51248C0.752147 6.96407 0.919216 6.42483 1.13759 5.91098C1.35175 5.40502 1.61678 4.91738 1.9243 4.46299C2.22931 4.01114 2.58018 3.58837 2.96602 3.20182C3.35146 2.81733 3.77648 2.46827 4.22775 2.16286C4.6836 1.85452 5.17198 1.59034 5.67783 1.37562C6.19286 1.15796 6.73244 0.991137 7.28124 0.879641C7.84294 0.764809 8.4213 0.706543 8.99966 0.706543C9.57758 0.706543 10.1559 0.764809 10.7185 0.879641C11.2664 0.99117 11.806 1.158 12.3215 1.37562C12.8273 1.59031 13.3153 1.85452 13.7711 2.16286C14.2224 2.46827 14.6475 2.81733 15.0337 3.20182C15.4191 3.58837 15.77 4.01114 16.0746 4.46299C16.3837 4.91738 16.6483 5.40506 16.8617 5.91098C17.08 6.42483 17.2467 6.96407 17.3592 7.51248C17.4746 8.07299 17.5333 8.65052 17.5333 9.22805ZM5.89026 2.64592C3.85805 3.6042 2.34131 5.47408 1.86836 7.72762C2.06048 7.72929 5.0973 7.76758 8.59622 6.83925C7.33492 4.60153 5.98735 2.77536 5.89026 2.64592ZM9.2 7.95982C5.44774 9.08156 1.84711 9.00084 1.71795 8.99587C1.71585 9.07408 1.71211 9.14979 1.71211 9.22804C1.71211 11.0975 2.41839 12.8018 3.57929 14.0904C3.57678 14.0867 5.57108 10.5537 9.50377 9.2838C9.59876 9.25218 9.69546 9.22387 9.79128 9.19642C9.60838 8.78285 9.40875 8.36842 9.2 7.95982ZM13.8124 3.76646C12.5293 2.63676 10.8447 1.95151 8.9996 1.95151C8.40748 1.95151 7.83286 2.02308 7.28242 2.15539C7.39157 2.30187 8.76042 4.11516 10.0067 6.40028C12.7565 5.3709 13.7944 3.79308 13.8124 3.76646ZM10.288 10.4022C10.2718 10.4076 10.2556 10.4122 10.2397 10.418C5.93997 11.9148 4.53583 14.9313 4.52064 14.9642C5.75781 15.925 7.30956 16.5046 8.99965 16.5046C10.0088 16.5046 10.9701 16.2994 11.8448 15.9279C11.7368 15.2921 11.3135 13.0635 10.288 10.4022ZM13.0719 15.263C14.7082 14.1604 15.8703 12.4095 16.1945 10.3814C16.0445 10.3331 14.0057 9.6886 11.6535 10.0652C12.6093 12.6882 12.9977 14.8244 13.0719 15.263ZM10.5676 7.48462C10.7368 7.83165 10.9006 8.18485 11.0518 8.53982C11.1056 8.66715 11.1581 8.79199 11.2093 8.91679C13.7128 8.60222 16.1792 9.13148 16.2846 9.15309C16.2679 7.42802 15.65 5.8448 14.6275 4.6053C14.6137 4.62481 13.4449 6.31123 10.5676 7.48462Z" fill="white"/>
</svg>
