<svg width="18" height="18" viewBox="0 0 18 18" fill="none" xmlns="http://www.w3.org/2000/svg">
<path fill-rule="evenodd" clip-rule="evenodd" d="M9.00081 0.706543C6.68327 0.706543 6.39243 0.716676 5.48219 0.758099C4.57374 0.799699 3.95364 0.943523 3.41106 1.15455C2.84981 1.37251 2.37372 1.66406 1.8994 2.13856C1.42473 2.61287 1.13317 3.08897 0.914502 3.65004C0.702944 4.1928 0.558942 4.81307 0.518053 5.72117C0.477342 6.6314 0.466675 6.92243 0.466675 9.23996C0.466675 11.5575 0.476986 11.8475 0.518231 12.7577C0.560009 13.6661 0.703833 14.2862 0.914679 14.8288C1.13282 15.3901 1.42437 15.8662 1.89887 16.3405C2.37301 16.8152 2.8491 17.1074 3.40999 17.3254C3.95293 17.5364 4.57321 17.6802 5.48148 17.7218C6.39171 17.7633 6.68238 17.7734 8.99974 17.7734C11.3175 17.7734 11.6074 17.7633 12.5176 17.7218C13.4261 17.6802 14.0469 17.5364 14.5898 17.3254C15.1509 17.1074 15.6263 16.8152 16.1004 16.3405C16.5751 15.8662 16.8667 15.3901 17.0853 14.829C17.2951 14.2862 17.4391 13.666 17.4818 12.7579C17.5227 11.8476 17.5333 11.5575 17.5333 9.23996C17.5333 6.92243 17.5227 6.63158 17.4818 5.72135C17.4391 4.8129 17.2951 4.1928 17.0853 3.65022C16.8667 3.08897 16.5751 2.61287 16.1004 2.13856C15.6258 1.66389 15.1511 1.37233 14.5893 1.15455C14.0453 0.943523 13.4249 0.799699 12.5164 0.758099C11.6062 0.716676 11.3164 0.706543 8.99814 0.706543H9.00081ZM8.23525 2.24431C8.46245 2.24396 8.71597 2.24431 9.00077 2.24431C11.2792 2.24431 11.5492 2.25249 12.449 2.29338C13.281 2.33142 13.7326 2.47045 14.0334 2.58725C14.4316 2.74192 14.7155 2.92681 15.014 3.22548C15.3127 3.52415 15.4976 3.8086 15.6526 4.20682C15.7694 4.50727 15.9086 4.95883 15.9464 5.79084C15.9873 6.6904 15.9962 6.96063 15.9962 9.23799C15.9962 11.5153 15.9873 11.7856 15.9464 12.6851C15.9084 13.5171 15.7694 13.9687 15.6526 14.2691C15.4979 14.6674 15.3127 14.9509 15.014 15.2494C14.7153 15.5481 14.4318 15.733 14.0334 15.8877C13.7329 16.005 13.281 16.1437 12.449 16.1817C11.5494 16.2226 11.2792 16.2315 9.00077 16.2315C6.72217 16.2315 6.45212 16.2226 5.55256 16.1817C4.72055 16.1433 4.26899 16.0043 3.96801 15.8875C3.56978 15.7328 3.28533 15.5479 2.98666 15.2492C2.68799 14.9506 2.5031 14.6668 2.34808 14.2684C2.23128 13.968 2.09208 13.5164 2.05421 12.6844C2.01332 11.7849 2.00514 11.5146 2.00514 9.23585C2.00514 6.95707 2.01332 6.68827 2.05421 5.78871C2.09226 4.9567 2.23128 4.50514 2.34808 4.20433C2.50275 3.80611 2.68799 3.52166 2.98666 3.22299C3.28533 2.92432 3.56978 2.73943 3.96801 2.58441C4.26881 2.46707 4.72055 2.3284 5.55256 2.29018C6.33977 2.25462 6.64484 2.24396 8.23525 2.24218V2.24431ZM13.5558 3.66122C12.9905 3.66122 12.5318 4.11936 12.5318 4.68488C12.5318 5.25021 12.9905 5.70889 13.5558 5.70889C14.1212 5.70889 14.5799 5.25021 14.5799 4.68488C14.5799 4.11954 14.1212 3.66122 13.5558 3.66122ZM9.00082 4.85767C6.58071 4.85767 4.61855 6.81983 4.61855 9.23994C4.61855 11.6601 6.58071 13.6213 9.00082 13.6213C11.4209 13.6213 13.3824 11.6601 13.3824 9.23994C13.3824 6.81983 11.4209 4.85767 9.00082 4.85767ZM9.00079 6.39547C10.5717 6.39547 11.8453 7.6689 11.8453 9.23994C11.8453 10.8108 10.5717 12.0844 9.00079 12.0844C7.42975 12.0844 6.15632 10.8108 6.15632 9.23994C6.15632 7.6689 7.42975 6.39547 9.00079 6.39547Z" fill="white"/>
</svg>
