<svg width="131" height="28" viewBox="0 0 131 28" fill="none" xmlns="http://www.w3.org/2000/svg">
<g clip-path="url(#clip0)">
<path d="M21.6933 27.1449L22.2099 28.0001C18.8618 27.0125 15.936 26.7586 14.5963 26.5176C13.6939 26.357 12.47 25.0591 12.3328 23.2923C12.2706 22.5044 12.3928 21.7838 12.8601 21.3931C14.2662 20.2189 19.3462 21.3193 22.4457 21.6818C22.2356 21.9488 22.0342 22.2157 21.8348 22.4805C21.5776 22.8191 21.3825 23.225 21.2646 23.6634C18.0259 23.2033 14.5063 22.5695 14.4548 22.5587L14.3969 22.8365C14.4505 22.843 17.9573 23.4703 21.2025 23.9348C21.1489 24.1561 21.121 24.384 21.1146 24.6185C17.9165 24.1627 14.5084 23.5462 14.457 23.5419L14.3991 23.8132C14.4527 23.8197 17.8887 24.4361 21.1039 24.8963C21.1039 25.1133 21.121 25.3304 21.151 25.5409C18.088 25.0916 14.98 24.5295 14.9328 24.5251L14.8749 24.7964C14.9285 24.803 18.1009 25.3738 21.1982 25.8231C21.2882 26.2963 21.4576 26.7455 21.6933 27.1449Z" fill="url(#paint0_linear)"/>
<path d="M12.307 16.4551L12.3006 16.7524C12.3885 16.7524 18.1844 16.8762 22.9472 16.9673C22.8894 17.2104 22.8465 17.4665 22.8294 17.7161C18.0944 17.6271 12.3928 17.5013 12.3049 17.5013L12.2984 17.7986C12.3863 17.7986 18.0773 17.9223 22.8101 18.0135C22.7993 18.2696 22.8101 18.5192 22.8401 18.7558C18.2059 18.6733 12.8665 18.5605 12.7786 18.5539L12.7722 18.8513C12.86 18.8578 18.2337 18.9707 22.8851 19.0597C22.9901 19.6826 23.2195 20.2426 23.5474 20.6702C23.676 20.8373 23.8046 21.0023 23.929 21.1629C19.9249 20.5638 16.4654 20.1731 12.5064 20.2122C11.3339 20.2231 10.1185 18.7276 9.77772 17.2712C9.61267 16.5831 9.72413 15.9168 10.095 15.4111C10.4465 14.9292 10.9974 14.6384 11.649 14.5906C16.101 14.3649 20.5358 14.2108 24.8356 14.1392C24.647 14.2998 24.467 14.4604 24.2848 14.621C23.6632 15.1745 23.2473 15.8973 23.018 16.67C18.2552 16.5788 12.3949 16.4551 12.307 16.4551Z" fill="url(#paint1_linear)"/>
<path d="M5.90015 7.08515C6.1938 7.28701 6.48103 7.48886 6.76397 7.69072C7.44559 8.17474 7.96646 8.7738 8.33942 9.42278C16.5232 8.37877 26.2525 9.40107 26.3661 9.41409L26.3382 9.70928C26.231 9.69409 16.6154 8.69132 8.50018 9.70711C8.61379 9.94152 8.71667 10.1824 8.78955 10.4212C16.8919 9.45533 26.3468 10.4472 26.4539 10.4559L26.4261 10.7511C26.3189 10.7424 16.9369 9.76137 8.87958 10.7121C8.94603 10.9573 8.99104 11.2026 9.01676 11.4392C16.9755 10.5927 25.9631 11.5368 26.0681 11.5455L26.0402 11.8407C25.9331 11.832 16.9648 10.8922 9.04034 11.7365C9.07249 12.4007 8.95889 13.0128 8.6931 13.5011C8.56449 13.7334 8.44231 13.9635 8.32656 14.2C13.8224 13.8072 19.5348 13.5402 25.2986 13.4187C26.6426 13.3687 28.1194 12.2357 28.546 10.9052C28.7196 10.3669 28.6574 9.82866 28.3573 9.34247C27.9565 8.69132 27.1892 8.23768 26.246 8.09877C19.3419 7.18282 12.5021 6.84422 5.90015 7.08515Z" fill="url(#paint2_linear)"/>
<path d="M35.8165 1.38098C35.4414 1.51555 35.0705 1.65446 34.7019 1.79554C33.8702 2.11244 33.1221 2.57909 32.4962 3.13908C15.0226 0.660374 3.39638 2.77661 3.27206 2.80048L3.32565 3.09133C3.44997 3.06963 14.9261 0.981608 32.224 3.40605C32.0139 3.61659 31.8167 3.84232 31.6474 4.07891C14.5275 1.7326 3.18632 3.80108 3.062 3.82279L3.11559 4.11363C3.23776 4.09627 14.4739 2.04949 31.4609 4.35456C31.3109 4.58897 31.178 4.8299 31.0729 5.07299L31.0687 5.09036C14.4181 2.92854 3.43282 4.93191 3.31493 4.94928L3.36852 5.24012C3.48641 5.22276 14.3967 3.23458 30.9615 5.37686C30.6957 6.11483 30.6871 6.83544 30.925 7.4193C31.0194 7.65806 31.1094 7.89464 31.1973 8.13122C22.6427 6.52072 13.5929 5.88476 4.29664 6.26026C2.55614 6.3015 0.725609 5.38772 0.134009 4.17658C-0.0481862 3.80976 -0.0438992 3.41039 0.142583 3.02622C0.536983 2.24701 1.6173 1.61973 2.9784 1.38315C14.2574 -0.459602 25.3006 -0.461773 35.8165 1.38098Z" fill="url(#paint3_linear)"/>
</g>
<path d="M44.74 22H47.46V10.14H52V7.6H40.2V10.14H44.74V22ZM57.0309 22.32C57.8109 22.32 58.4909 22.19 59.0709 21.93C59.6509 21.67 60.1376 21.3233 60.5309 20.89V22H62.9309V11.2H60.1909V16.68C60.1909 17.3467 60.1143 17.8867 59.9609 18.3C59.8143 18.7067 59.6243 19.0167 59.3909 19.23C59.1576 19.4367 58.9076 19.5767 58.6409 19.65C58.3743 19.7233 58.1243 19.76 57.8909 19.76C57.3109 19.76 56.8609 19.63 56.5409 19.37C56.2276 19.11 56.0009 18.7867 55.8609 18.4C55.7209 18.0133 55.6376 17.63 55.6109 17.25C55.5843 16.8633 55.5709 16.5467 55.5709 16.3V11.2H52.8109V17.26C52.8109 17.44 52.8243 17.7267 52.8509 18.12C52.8776 18.5133 52.9543 18.95 53.0809 19.43C53.2076 19.9033 53.4176 20.36 53.7109 20.8C54.0109 21.24 54.4276 21.6033 54.9609 21.89C55.4943 22.1767 56.1843 22.32 57.0309 22.32ZM72.6058 22V19.74C71.9658 19.8267 71.3824 19.8533 70.8558 19.82C70.3291 19.7867 69.9458 19.58 69.7058 19.2C69.5791 19 69.5091 18.7333 69.4958 18.4C69.4891 18.06 69.4858 17.68 69.4858 17.26V13.3H72.6058V11.2H69.4858V8.2H66.7658V11.2H64.9258V13.3H66.7658V17.42C66.7658 18.0667 66.7724 18.6467 66.7858 19.16C66.7991 19.6667 66.9391 20.1667 67.2058 20.66C67.4991 21.1867 67.9258 21.57 68.4858 21.81C69.0524 22.0433 69.6924 22.1667 70.4058 22.18C71.1258 22.2 71.8591 22.14 72.6058 22ZM79.667 22.3C80.747 22.3 81.697 22.06 82.517 21.58C83.3437 21.0933 83.987 20.4233 84.447 19.57C84.9137 18.71 85.147 17.72 85.147 16.6C85.147 15.4867 84.917 14.5033 84.457 13.65C83.997 12.79 83.3537 12.1167 82.527 11.63C81.707 11.1433 80.7537 10.9 79.667 10.9C78.6004 10.9 77.657 11.14 76.837 11.62C76.017 12.1 75.3737 12.77 74.907 13.63C74.4404 14.4833 74.207 15.4733 74.207 16.6C74.207 17.7133 74.4337 18.7 74.887 19.56C75.347 20.4133 75.987 21.0833 76.807 21.57C77.627 22.0567 78.5804 22.3 79.667 22.3ZM79.667 19.76C78.8204 19.76 78.177 19.4767 77.737 18.91C77.3037 18.3367 77.087 17.5667 77.087 16.6C77.087 15.66 77.2937 14.9 77.707 14.32C78.127 13.7333 78.7804 13.44 79.667 13.44C80.527 13.44 81.1737 13.7267 81.607 14.3C82.047 14.8733 82.267 15.64 82.267 16.6C82.267 17.5267 82.0504 18.2867 81.617 18.88C81.1904 19.4667 80.5404 19.76 79.667 19.76ZM87.7461 22H90.4861V16.48C90.4861 15.2267 90.9794 14.3733 91.9661 13.92C92.2861 13.7667 92.6428 13.6767 93.0361 13.65C93.4361 13.6167 93.7861 13.6467 94.0861 13.74V11.2C93.5994 11.14 93.1128 11.1533 92.6261 11.24C92.1394 11.32 91.6994 11.48 91.3061 11.72C91.0528 11.8667 90.8294 12.0433 90.6361 12.25C90.4494 12.4567 90.2861 12.6867 90.1461 12.94V11.2H87.7461V22ZM96.5883 22H105.508V19.46H99.3083V7.6H96.5883V22ZM110.609 22.3C111.442 22.3 112.142 22.1733 112.709 21.92C113.282 21.66 113.809 21.2467 114.289 20.68V22H116.669V15.4C116.669 14.9067 116.649 14.46 116.609 14.06C116.569 13.66 116.442 13.26 116.229 12.86C115.849 12.14 115.289 11.6333 114.549 11.34C113.809 11.0467 112.962 10.9 112.009 10.9C110.709 10.9 109.682 11.18 108.929 11.74C108.175 12.3 107.662 13.0267 107.389 13.92L109.849 14.7C110.022 14.2067 110.325 13.8633 110.759 13.67C111.192 13.4767 111.609 13.38 112.009 13.38C112.649 13.38 113.125 13.5 113.439 13.74C113.752 13.9733 113.935 14.3433 113.989 14.85C112.975 14.9967 112.082 15.14 111.309 15.28C110.535 15.4133 109.889 15.5733 109.369 15.76C108.502 16.08 107.892 16.5167 107.539 17.07C107.185 17.6167 107.009 18.2667 107.009 19.02C107.009 19.62 107.145 20.17 107.419 20.67C107.699 21.1633 108.105 21.56 108.639 21.86C109.179 22.1533 109.835 22.3 110.609 22.3ZM111.189 20.16C110.722 20.16 110.352 20.0567 110.079 19.85C109.805 19.6367 109.669 19.3467 109.669 18.98C109.669 18.7067 109.755 18.4733 109.929 18.28C110.102 18.08 110.389 17.9 110.789 17.74C111.095 17.6267 111.472 17.5233 111.919 17.43C112.372 17.33 113.055 17.2033 113.969 17.05C113.962 17.31 113.942 17.5967 113.909 17.91C113.875 18.2167 113.802 18.4867 113.689 18.72C113.615 18.8733 113.475 19.0633 113.269 19.29C113.069 19.5167 112.795 19.72 112.449 19.9C112.109 20.0733 111.689 20.16 111.189 20.16ZM119.649 22H122.049V21.38C122.429 21.6733 122.862 21.9 123.349 22.06C123.835 22.22 124.375 22.3 124.969 22.3C125.962 22.3 126.832 22.05 127.579 21.55C128.325 21.05 128.905 20.37 129.319 19.51C129.739 18.65 129.949 17.68 129.949 16.6C129.949 15.5 129.735 14.5233 129.309 13.67C128.889 12.81 128.295 12.1333 127.529 11.64C126.762 11.1467 125.862 10.9 124.829 10.9C124.355 10.9 123.912 10.9567 123.499 11.07C123.092 11.1833 122.722 11.3467 122.389 11.56V7.6H119.649V22ZM124.529 19.88C123.622 19.88 122.982 19.58 122.609 18.98C122.235 18.3733 122.049 17.58 122.049 16.6C122.049 15.62 122.232 14.83 122.599 14.23C122.972 13.6233 123.582 13.32 124.429 13.32C125.035 13.32 125.532 13.47 125.919 13.77C126.312 14.0633 126.602 14.46 126.789 14.96C126.975 15.4533 127.069 16 127.069 16.6C127.069 17.2067 126.979 17.76 126.799 18.26C126.619 18.7533 126.342 19.1467 125.969 19.44C125.595 19.7333 125.115 19.88 124.529 19.88Z" fill="white"/>
<defs>
<linearGradient id="paint0_linear" x1="12.0604" y1="28.4933" x2="39.3315" y2="10.0293" gradientUnits="userSpaceOnUse">
<stop stop-color="#36A9E1"/>
<stop offset="0.0999" stop-color="#3AA7DF"/>
<stop offset="0.1887" stop-color="#44A1DA"/>
<stop offset="0.2733" stop-color="#5797D1"/>
<stop offset="0.3554" stop-color="#7089C4"/>
<stop offset="0.4356" stop-color="#9177B4"/>
<stop offset="0.5143" stop-color="#BA61A0"/>
<stop offset="0.5906" stop-color="#E94789"/>
<stop offset="0.6229" stop-color="#FF3B7E"/>
<stop offset="0.6802" stop-color="#FF417A"/>
<stop offset="0.7559" stop-color="#FE5170"/>
<stop offset="0.8417" stop-color="#FC6D5F"/>
<stop offset="0.9345" stop-color="#FB9347"/>
<stop offset="1" stop-color="#F9B233"/>
</linearGradient>
<linearGradient id="paint1_linear" x1="8.91356" y1="23.8454" x2="36.1847" y2="5.38137" gradientUnits="userSpaceOnUse">
<stop stop-color="#36A9E1"/>
<stop offset="0.0999" stop-color="#3AA7DF"/>
<stop offset="0.1887" stop-color="#44A1DA"/>
<stop offset="0.2733" stop-color="#5797D1"/>
<stop offset="0.3554" stop-color="#7089C4"/>
<stop offset="0.4356" stop-color="#9177B4"/>
<stop offset="0.5143" stop-color="#BA61A0"/>
<stop offset="0.5906" stop-color="#E94789"/>
<stop offset="0.6229" stop-color="#FF3B7E"/>
<stop offset="0.6802" stop-color="#FF417A"/>
<stop offset="0.7559" stop-color="#FE5170"/>
<stop offset="0.8417" stop-color="#FC6D5F"/>
<stop offset="0.9345" stop-color="#FB9347"/>
<stop offset="1" stop-color="#F9B233"/>
</linearGradient>
<linearGradient id="paint2_linear" x1="4.92699" y1="17.9575" x2="32.1981" y2="-0.506579" gradientUnits="userSpaceOnUse">
<stop stop-color="#36A9E1"/>
<stop offset="0.0999" stop-color="#3AA7DF"/>
<stop offset="0.1887" stop-color="#44A1DA"/>
<stop offset="0.2733" stop-color="#5797D1"/>
<stop offset="0.3554" stop-color="#7089C4"/>
<stop offset="0.4356" stop-color="#9177B4"/>
<stop offset="0.5143" stop-color="#BA61A0"/>
<stop offset="0.5906" stop-color="#E94789"/>
<stop offset="0.6229" stop-color="#FF3B7E"/>
<stop offset="0.6802" stop-color="#FF417A"/>
<stop offset="0.7559" stop-color="#FE5170"/>
<stop offset="0.8417" stop-color="#FC6D5F"/>
<stop offset="0.9345" stop-color="#FB9347"/>
<stop offset="1" stop-color="#F9B233"/>
</linearGradient>
<linearGradient id="paint3_linear" x1="2.5917" y1="14.5085" x2="29.8628" y2="-3.95559" gradientUnits="userSpaceOnUse">
<stop stop-color="#36A9E1"/>
<stop offset="0.0999" stop-color="#3AA7DF"/>
<stop offset="0.1887" stop-color="#44A1DA"/>
<stop offset="0.2733" stop-color="#5797D1"/>
<stop offset="0.3554" stop-color="#7089C4"/>
<stop offset="0.4356" stop-color="#9177B4"/>
<stop offset="0.5143" stop-color="#BA61A0"/>
<stop offset="0.5906" stop-color="#E94789"/>
<stop offset="0.6229" stop-color="#FF3B7E"/>
<stop offset="0.6802" stop-color="#FF417A"/>
<stop offset="0.7559" stop-color="#FE5170"/>
<stop offset="0.8417" stop-color="#FC6D5F"/>
<stop offset="0.9345" stop-color="#FB9347"/>
<stop offset="1" stop-color="#F9B233"/>
</linearGradient>
<clipPath id="clip0">
<rect width="35.8165" height="28" fill="white"/>
</clipPath>
</defs>
</svg>
